<?xml version="1.0" encoding="UTF-8"?>
<svg version="1.1" viewBox="0 0 2000 1999" xmlns="http://www.w3.org/2000/svg">
<g transform="translate(-.43149 -.43127)">
<svg width="2e3" height="1999" data-background-color="#ffffff" viewBox="0 0 343 343" xmlns="http://www.w3.org/2000/svg" xmlns:xlink="http://www.w3.org/1999/xlink">
<g transform="translate(.074 .074)">
<svg width="342.85" height="342.85" viewBox="0 0 342.85155851775386 342.85155851775386">
<svg/>
<svg width="342.85" height="342.85" viewBox="0 0 342.85155851775386 342.85155851775386">
<g fill="#562b00" stroke="transparent">
<path d="m0 171.43c0-94.676 76.75-171.43 171.43-171.43s171.43 76.75 171.43 171.43-76.75 171.43-171.43 171.43-171.43-76.75-171.43-171.43zm171.43 168.06c92.82 0 168.06-75.245 168.06-168.06 0-92.82-75.245-168.06-168.06-168.06s-168.06 75.245-168.06 168.06 75.245 168.06 168.06 168.06z" data-fill-palette-color="tertiary"/>
<ellipse cx="171.43" cy="171.43" rx="164.57" ry="164.57" stroke-width="0" data-fill-palette-color="tertiary"/>
</g>
<g transform="translate(64.847 122.64)">
<svg width="213.16" height="97.576" viewBox="0 0 213.1584412271571 97.57609913326056">
<svg width="213.16" height="97.576" viewBox="0 0 213.1584412271571 97.57609913326056">
<svg width="213.16" height="97.576" viewBox="0 0 213.1584412271571 97.57609913326056">
<g transform="translate(0 60.306)">
<svg width="213.16" height="37.27" viewBox="0 0 213.1584412271571 37.27015530995302">
<svg width="213.16" height="37.27" viewBox="0 0 213.1584412271571 37.27015530995302">
<svg width="213.16" height="37.27" viewBox="0 0 213.1584412271571 37.27015530995302">
<g>
<svg width="213.16" height="37.27" data-palette-color="#ffffff" viewBox="2.65 -35.7 269.93 47.2">
<path class="wordmark-text-0" d="m6.5-3.1v-31.9h3.4v31.6q0 6.3-1.75 9.8t-5.35 5.1l-0.15-0.25q2-1.4 2.93-4.72 0.92-3.33 0.92-9.63zm13.9-14.4q0-3.85 1.37-7.18 1.38-3.32 3.85-5.8 2.48-2.47 5.8-3.85 3.33-1.37 7.18-1.37t7.17 1.37q3.33 1.38 5.8 3.85 2.48 2.48 3.85 5.8 1.38 3.33 1.38 7.18t-1.38 7.17q-1.37 3.33-3.85 5.8-2.47 2.48-5.8 3.85-3.32 1.38-7.17 1.38t-7.18-1.38q-3.32-1.37-5.8-3.85-2.47-2.47-3.85-5.8-1.37-3.32-1.37-7.17zm3.8 0q0 5.1 1.8 8.92 1.8 3.83 5.05 5.95 3.25 2.13 7.55 2.13t7.55-2.13q3.25-2.12 5.05-5.97t1.8-8.9-1.8-8.88q-1.8-3.82-5.05-5.97t-7.55-2.15-7.53 2.12q-3.22 2.13-5.05 5.95-1.82 3.83-1.82 8.93zm51.2 17.5h-8.1v-35h6.95q5.4 0 8.4 2.25t3 6.25q0 2.95-1.75 5.02-1.75 2.08-4.9 2.83v0.3q4.3 0.55 6.72 2.97 2.43 2.43 2.43 6.13 0 4.35-3.35 6.8t-9.4 2.45zm-1.1-33.8h-3.6v15h3.55q7.9 0 7.9-7.5t-7.85-7.5zm1.1 16.2h-4.7v16.4h4.7q9.15 0 9.15-8.2t-9.15-8.2zm26.14 17.6h-3.4v-35h14.7v2.45l-8.3-1.15q-2.25-0.3-3-0.3v15.65q0.8 0 3.1-0.15l7.65-0.5v2.3l-7.65-0.5q-2.3-0.15-3.1-0.15v17.35zm24.45 0h-3.4v-35h3.4v35zm15.65 0h-3.4l1.25-35.7h0.6l25.15 30.4h0.3l-1.1-29.7h3.4l-1.25 35.7h-0.6l-25.15-30.4h-0.3l1.1 29.7zm49.45 0h-11v-35h11q5.8 0 10.1 2.2t6.7 6.12q2.4 3.93 2.4 9.18t-2.4 9.17q-2.4 3.93-6.7 6.13t-10.1 2.2zm0-33.8h-7.6v32.6h7.6q7.25 0 11.32-4.3 4.08-4.3 4.08-12t-4.08-12q-4.07-4.3-11.32-4.3zm45.09 33.8h-15.4v-35h15.25v2.45l-8.75-1.15q-2.3-0.3-3.1-0.3v15.25q0.65 0 3.1-0.15l8.2-0.5v2.3l-8.2-0.5q-2.45-0.15-3.1-0.15v16.75q0.9 0 3.15-0.3l8.85-1.15v2.45zm10.5 0v-35h6.7q5.3 0 8.23 2.23 2.92 2.22 2.92 6.22 0 3.1-1.82 5.15-1.83 2.05-5.28 2.75v0.3q3.3 0.65 5.4 3.1t3.15 6.05q0.95 3.3 1.88 5.12 0.92 1.83 2.05 2.63 1.12 0.8 2.67 1.15v0.3h-2.05q-2.2 0-3.62-0.8-1.43-0.8-2.43-2.7t-1.9-5.25q-1.45-5.15-3.85-7.3t-5.85-2.15h-0.3v-0.9h0.3q8.05 0 8.05-7.4 0-7.3-7.55-7.3h-3.3v33.8h-3.4z" fill="#fff" data-fill-palette-color="quaternary"/>
</svg>
</g>
</svg>
</svg>
</svg>
</g>
<g transform="translate(80.826)">
<svg width="51.507" height="51.507" viewBox="0 0 51.507354638355075 51.507354638355075">
<svg class="icon-icon-0" width="51.507" height="51.507" enable-background="new 0 0 100 100" data-fill-palette-color="quaternary" version="1.1" viewBox="0 0 100 100" xml:space="preserve" xmlns="http://www.w3.org/2000/svg" xmlns:xlink="http://www.w3.org/1999/xlink"><g fill="#fff" data-fill-palette-color="quaternary"><path d="m93.545 45.869a81 81 0 0 0 6.455-2.758c-0.494-4.174-1.704-8.237-3.229-12.143-2.311 0.167-4.692 0.47-6.998 0.841a44 44 0 0 0-4.141-7.167 90 90 0 0 0 4.209-5.631 48.5 48.5 0 0 0-8.854-8.854 91 91 0 0 0-5.622 4.201 43.3 43.3 0 0 0-7.176-4.148c0.371-2.302 0.678-4.678 0.84-6.983-3.905-1.523-7.971-2.73-12.138-3.227-1.018 2.143-1.935 4.244-2.766 6.464a43.6 43.6 0 0 0-8.257-8e-3 80 80 0 0 0-2.764-6.456c-4.164 0.497-8.233 1.704-12.14 3.223 0.167 2.312 0.472 4.695 0.844 7.004a44 44 0 0 0-7.164 4.14 90 90 0 0 0-5.633-4.21 48.6 48.6 0 0 0-8.857 8.854 90 90 0 0 0 4.205 5.624 43.6 43.6 0 0 0-4.148 7.172c-2.304-0.37-4.68-0.672-6.986-0.839-1.521 3.906-2.734 7.97-3.225 12.143 2.144 1.019 4.244 1.934 6.464 2.761a43.6 43.6 0 0 0-9e-3 8.26 80 80 0 0 0-6.455 2.759c0.491 4.171 1.704 8.234 3.224 12.143 2.311-0.166 4.693-0.473 7-0.846a44 44 0 0 0 4.142 7.168 87 87 0 0 0-4.213 5.634 48.8 48.8 0 0 0 8.857 8.856 90 90 0 0 0 5.621-4.206 43.3 43.3 0 0 0 7.175 4.148c-0.372 2.301-0.675 4.679-0.842 6.989 3.907 1.518 7.976 2.729 12.14 3.223a82 82 0 0 0 2.767-6.464 43.6 43.6 0 0 0 8.257 9e-3 83 83 0 0 0 2.763 6.455c4.167-0.493 8.233-1.705 12.139-3.223-0.163-2.314-0.469-4.697-0.842-7.002a44 44 0 0 0 7.17-4.143 90 90 0 0 0 5.63 4.213 48.8 48.8 0 0 0 8.854-8.856 87 87 0 0 0-4.201-5.623 43.4 43.4 0 0 0 4.15-7.177c2.299 0.377 4.676 0.678 6.98 0.844 1.524-3.908 2.734-7.972 3.229-12.143a81 81 0 0 0-6.464-2.763 43.7 43.7 0 0 0 9e-3 -8.258m-25.08 31.518v-14.155c0-7.204-6.982-13.042-14.186-13.042l-4.026 4.918 4.028 18.627-4.498 4.593-4.497-4.593 4.027-18.627-4.027-4.921c-7.204 0-14.185 5.84-14.185 13.044v13.695c-8.438-5.97-13.948-15.805-13.948-26.927 0-18.204 14.757-32.962 32.962-32.962 18.204 0 32.961 14.758 32.961 32.962 2e-3 11.414-5.798 21.471-14.611 27.388m-7.651-39.803c0 6.093-4.939 11.031-11.032 11.031-6.092 0-11.032-4.938-11.032-11.031s4.939-11.031 11.032-11.031 11.032 4.938 11.032 11.031" fill="#fff" data-fill-palette-color="quaternary"/></g></svg>
</svg>
</g>
</svg>
</svg>
</svg>
</g>
</svg>
</svg>
<rect width="342.85" height="342.85" fill="none" visibility="hidden"/>
</g>
</svg>
</g>
</svg>
